# xmcd CD database file
#
# Track frame offsets:
#	150
#	24887
#	43278
#	71452
#	100672
#	121914
#	148034
#	167329
#	181797
#	216944
#	240833
#	262619
#
# Disc length: 3801 seconds
#
# Revision: 0
# Processed by: cddbd v1.5.2PL0 Copyright (c) Steve Scherf et al.
# Submitted via: CDex 1.51
#
DISCID=900ed70c
DTITLE=Pauline Reese - Too Much Texas
DYEAR=2006
DGENRE=Country
TTITLE0=Lone Star Flag
TTITLE1=Whiskey River
TTITLE2=Cowboy Way
TTITLE3=Trail to Monterrey
TTITLE4=Caballo Diablo
TTITLE5=Ride Like the Wind
TTITLE6=One Less Honkey Tonk
TTITLE7=Rodeo Man
TTITLE8=Bad Company
TTITLE9=Wife of a Texas Ranger
TTITLE10=Long Tall Texan
TTITLE11=Pancho and Lefty
EXTD=YEAR: 2006
EXTT0=
EXTT1=
EXTT2=
EXTT3=
EXTT4=
EXTT5=
EXTT6=
EXTT7=
EXTT8=
EXTT9=
EXTT10=
EXTT11=
PLAYORDER=
